<?xml version="1.0" encoding="utf-8"?>
<!-- Generator: Adobe Illustrator 24.1.2, SVG Export Plug-In . SVG Version: 6.00 Build 0)  -->
<svg version="1.1" id="coca_x5F_cola" xmlns:svg="http://www.w3.org/2000/svg"
	 xmlns="http://www.w3.org/2000/svg" xmlns:xlink="http://www.w3.org/1999/xlink" x="0px" y="0px" viewBox="0 0 923.3 810"
	 style="enable-background:new 0 0 923.3 810;" xml:space="preserve">
<style type="text/css">
	.st0{fill:#E61D2A;}
</style>
<g>
	<g>
		<path class="st0" d="M480.4,332.9l-27,0.1l-15.1,24.8l26.9-0.1L480.4,332.9z M214.7,332.6c-17.1-11.1-51.2,10.3-78.6,47
			c-25,32.9-35.7,71.2-23.9,88.8c17.6,20.8,50-9.6,63.8-25.8l1.8-1.9c9.4-10.1,16.6-22.3,23.6-34c0,0,6.4-10.7,6.7-11.2
			c4-0.7,8.8-1.9,14.2-3.5c-0.1,0.2-20.7,35.1-18.5,52.3c0.7,5.3,0.2,24.5,19,30.3c25,4.1,45-15.3,62.6-32.6c0,0,3-2.9,4.7-4.5
			c-0.4,1.7-1,4-1,4c-7.3,25.5,2.6,30.8,8.8,32.8c18.7,5.4,40.9-21.8,41-21.8c-0.6,8.5-2.2,15.6,6.8,21.3c8.5,3,17.1-1.6,23.6-6
			c23.5-16.7,42.4-42.7,57.7-65.2l-9.8,0c-0.1,0-24,34.9-39.6,42.5c0,0-2.9,1.5-4.5,0.3c-2-1.7-1.2-5.3,0-7.9
			c0.1-0.2,60-104.6,60-104.6l-28.4,0.1c0,0-3.1,5-3.3,5.4c-0.2-0.2-0.6-1-1-1.4c-17.6-24.3-57.4,13.2-87.3,56.7
			c-11.5,16.7-26.2,35.5-41.4,49.1c0,0-22.5,20.8-32.2,5.9c-3.5-6.2-2.5-15.4-0.5-21.4c11.2-32,30.4-61.1,52.4-78.6
			c6.2-4.9,13-6.3,16.3-4.2c3.2,1.9,3.7,6.6,1.7,9.8c-5.1-0.1-9.2,1.4-12.6,4.9c-6.6,6.9-8.8,13.6-6.7,19.8
			c10.2,14.4,30.4-14.2,29.4-31.6c-0.4-6.2-3.7-12.2-8.7-15c-7.4-4.4-18.7-3.2-26,0.3c-9.8,3.7-25.3,16.7-34.3,26.7
			c-11.4,12.6-30.9,26.6-37,25.1C215.7,379,232.1,345.2,214.7,332.6z M321.8,440.9c0.6-7.1,7.7-28.7,29.9-58.7
			c5.5-7.7,21.5-28.2,25.4-31.6c13.1-11.6,18.4-6.5,18.9-2.9c-12.2,22.1-26.7,47.3-40.3,70.1c0-0.1-4.3,6.5-4.3,6.5
			c-6,9.2-12.1,17.1-21.9,22.7c-1.4,0.4-3.7,0.6-5.3-0.6C322.4,445.1,321.6,443.1,321.8,440.9z M197.3,395.8c0,0-0.2,0.7-0.4,1
			c0,0-12.3,20.2-12.3,20.2c-7.4,10-16.7,22.5-28.3,28.5c-3.4,1.2-8.2,1.9-10.6-1.1c-5.2-6.2-2.5-14.7-0.4-21.6l0.8-2.5
			c6.1-16.8,15.9-31.6,25.4-45.4c0.1-0.1,0.4-0.2,0.5-0.2c0,0.1,0.1,0.1,0.1,0.2c6,11.5,17.3,16.8,25.6,19.3c0.1,0,0.1,0.1,0.1,0.2
			C197.8,394.8,197.6,395.1,197.3,395.8z M208.9,372.1c0,0.2-5.5,12.7-5.5,12.7c-0.8,0.7-2,0.3-3.5,0l-2.4-0.4
			c-7.7-2.4-13.5-7.4-15.3-13.5c-2.5-11.8,7.6-21.1,12-24.5c4.3-3,10.9-4.5,14.8-1.5c2.4,2.8,3.3,6.4,3.3,10.4
			C212.4,360.5,210.8,366.5,208.9,372.1z M868.6,291.1c-20.5,11.7-41.8,19.3-67.6,16.8c-7.1,8.1-14.1,16.4-20.5,25
			c36.2,9.1,74.5-11.4,95.9-31c22.6-19.7,34.1-44.5,34.1-44.5S893.6,276.8,868.6,291.1z M814.7,477.4l41.8-74.6l-28.8,0.1
			c-1.4,2.3-4.3,7.4-4.3,7.4c-1.3-2.2-5.3-7.1-7-8.2c-7-4.4-17.3-2.3-24.4,1.7c-30.9,18.2-53.4,53.9-71.1,81.9c0,0-18.7,31-29,33.4
			c-8.1,0.7-7.3-10.3-7-12.8c3.1-18.4,10.3-35.9,17.7-51.8c14.9-10.4,31.9-24,47.4-38.9c33.5-32.2,61.8-68.7,65.9-76.9
			c0,0-4.5,0.9-9.8,1.1c-25.8,36.2-78.6,88.7-94.6,96.6c7.1-17.1,52.8-98.9,91.8-138l6.1-5.9c9.5-9.3,19.3-18.9,27-20.4
			c0.8-0.1,1.9,0,2.8,1.9c0.4,7.2-2.3,12.6-5.4,18.7l-4.3,8.9c0,0,6.1-1.2,10.1-2.5c4.7-8.8,9.8-18.7,7.9-30.4
			c-0.6-3.8-3.4-6.7-7-7.3c-11.7-2.2-24.4,6.5-34.6,13.5l-0.4,0.2c-52.5,41.3-96.7,100.8-135.3,181.9c-2.8,2.1-13.7,4.7-15.5,3.5
			c3.8-7.9,8.6-18.5,11-30c0.4-3.3,0.8-6.7,0.8-9.9c0-7.1-1.7-13.7-8.1-18.3c-7.4-3.7-16.6-1.9-22.8,0.9
			c-27.7,11.6-48.4,40.1-63.3,63.5c-8,14.9-16,30.9-18.2,49.1c-1.5,14.3,1.7,23.5,9.8,28.1c8.4,4.3,18.9-0.2,23-2.4
			c28.1-14.9,47.6-44.6,63-71.8c0.6-0.1,9.1-0.3,15.4-2c0.1,0,0.1,0,0.3,0.1c-0.4,1.2-3.6,11.1-3.6,11.1
			c-9.7,28.8-14.2,48.4-4.9,59.9c13.3,16.3,35.2-0.6,52.9-23.1c-3.8,26.8,10.1,31,20.7,28.9c12.1-3.3,25.7-16.3,31.9-23
			c-2,7.8-1.4,21.8,9.6,23.2c7.6,1.4,13.2-2.7,19.8-6.3c23.5-12.9,51.6-55.7,58.9-68.1l-9.6,0c-10.3,15.8-23.5,36.4-40.2,46.2
			c-2.9,2-7,0.5-5.5-4C799.6,500.9,814.7,477.4,814.7,477.4z M590,514.1c-1.5-2.2-2-4.6-2.1-7.3c-0.3-16.1,16.9-45,29.2-60.8
			c0,0,0,0,0,0c5.2,11.2,16.8,18.4,23.8,21.4C632.2,486.9,602.5,528.5,590,514.1z M645.8,458.8c-0.8,0.6-15.5-4.3-18.3-17.9
			c-2.4-11.7,5.6-20.8,13.4-25.4c3.3-2.6,8.4-3.6,12-2.3c3.4,2.3,4.4,6.4,4.4,10.8c0,2.7-0.3,5.5-0.7,8.1c0,0-0.1,0.5-0.1,0.6
			C654.1,441.8,650.4,450.8,645.8,458.8z M763.4,508.5c0,0-2.8,2.5-2.8,2.5c-3.9,3.5-8,7.3-12.9,5.5c-1.4-0.5-2.3-2.3-2.5-3.7
			c-0.2-10.1,4.3-19.5,8.7-28.6l1.1-2.4c12.6-21.2,27.4-46.3,49-63.7c3.6-2.6,7.6-4.9,11.8-3.2c1,0.9,2.1,2.5,2.1,4
			c0,0.5-0.4,1.8-0.7,2.2c-6,9.8-11.8,20.1-17.4,30C788.9,470.6,777.5,490.8,763.4,508.5z M567.8,409.4c-2.8-5.9-9.3-9.7-16.2-9.3
			c-22.5,2.1-44.4,20.7-55.9,47.2c-6,13.7-9.3,24.9-11.4,42.9c7-8.1,21.2-21.3,37.4-28.6c0,0,2.2-17.2,13.4-32.5
			c4.2-6.3,12.7-16.6,22.3-13.9c8.3,2.8,5.5,25.9-5.6,48.3c-8.2,16.5-20.7,32.9-33.4,44.3c-11.2,9.6-27.8,21.1-42.3,12.3
			c-9.2-5.4-13.9-16.7-12.9-31.4c4.3-41.5,23.1-76.9,50-117.3c27.8-37.5,58.4-75.9,99.8-96.5c8.4-4.3,16.3-5.3,23-2.7
			c0,0-38.8,21.5-57.2,61.1c-4.7,10-11.2,23.6-4.6,35.6c3.5,6.2,9.6,6.7,14.5,6.4c22.7-5.3,37.3-26.6,49.2-46
			c6.9-14.7,13.1-29.4,13-45.7c0-2-0.1-4.6-0.3-6.6c10.8-5.8,33.1,4.4,33.1,4.4c17.4,5.7,54.5,34,67,39.4
			c6.1-7.1,16.1-17.8,21.7-23.2l-8.2-5c-13.1-7.9-26.9-15.5-40.5-22.9c-30.9-16.8-56-10.8-68.8-6.2c-5,1.8-9.6,3.4-9.6,3.4
			c-9.5-10.3-25.1-9.3-36.5-6.5c-41.2,11.9-79.4,40.9-120.3,91c-30.1,39.3-48.7,73.2-58.6,106.7c-7.6,22.5-9.9,55.7,8.9,75.3
			c16,16.7,37.1,13,52.1,7c32.3-16,61.3-50.5,75.7-90C570,438.7,573.9,422,567.8,409.4z M642,285.3c-4.2,49.2-42.3,78.1-51.8,80.4
			c-5.7,1.2-15.5-1.4-6.8-22c12.8-27.8,34.7-51.5,58.2-63.6C642.1,282.2,642.1,283.5,642,285.3z M357.8,515.2
			c-33.5-21.5-78.8-25.1-152-4.7c-77.9,18.5-103.9,30.3-138.1,6.8c-13.1-11.6-17.9-30.2-14.4-57.1c8-43.8,30-86.1,69-132.9
			c21.8-24.4,42-45.3,68.7-53.8c20.5-5.3,18.6,10.8,16.1,13.1c-2.6,0-7,0.4-10.4,2.7c-2.8,2.1-10.3,9.1-10.7,18.4
			c-0.6,14.2,14.2,11.2,20.5,3.4c6.8-8.8,16.9-25.7,8.9-41.4c-3.3-5.6-9.1-9.4-16.3-10.7c-24.5-1.3-47.3,10.4-68.3,23.3
			c-45.9,32.1-82.7,76.5-103.4,125c-11.9,29.3-22.7,71.2-6.3,105.3c12.6,23.6,38.8,36.2,70,33.5c21.9-2.4,48.3-9.5,66.1-13.8
			C175,528,266,496.5,296,550.9c0,0,9.9-19.3,34.8-19.8c20.4-1.9,50,5.8,71.5,21.5C395.1,541.9,374.7,526.1,357.8,515.2z"/>
	</g>
</g>
</svg>
