<?xml version="1.0" encoding="UTF-8" standalone="no" ?>
<!DOCTYPE svg PUBLIC "-//W3C//DTD SVG 1.1//EN" "http://www.w3.org/Graphics/SVG/1.1/DTD/svg11.dtd">
<svg xmlns="http://www.w3.org/2000/svg" xmlns:xlink="http://www.w3.org/1999/xlink" version="1.1" width="500" height="500" viewBox="0 0 500 500" xml:space="preserve">
<desc>Created with Fabric.js 3.6.3</desc>
<defs>
</defs>
<g transform="matrix(1 0 0 1 250.34 282.4635299663839)" style=""  ><path fill="#DB9E36" opacity="1" d="M-162.34-11.61L-164.02-12.21L-164.02-21.01L-163.23-21.65L-162.34-21.01Q-160.96-19.97-156.70-19.97L-156.70-19.97L-138.65-19.97L-158.19 12.72L-147.01 12.72Q-145.23 12.72-144.24 12.34Q-143.25 11.97-142.68 11.06Q-142.12 10.14-141.62 8.31L-141.62 8.31L-141.32 7.18L-139.64 7.77L-139.64 16.23L-140.63 16.77L-141.03 16.23Q-141.57 15.53-143.10 15.53L-143.10 15.53L-165.85 15.53L-146.22-17.15L-156.65-17.15Q-158.43-17.15-159.42-16.78Q-160.41-16.41-160.98-15.50Q-161.55-14.58-162.04-12.75L-162.04-12.75L-162.34-11.61Z"/><path fill="#DB9E36" opacity="1" d="M-126.49 8.96Q-126.49 10.54-126.24 11.33Q-126.00 12.12-125.33 12.42Q-124.66 12.72-123.33 12.72L-123.33 12.72L-119.02 12.72Q-117.24 12.72-116.25 12.34Q-115.26 11.97-114.70 11.06Q-114.13 10.14-113.63 8.31L-113.63 8.31L-113.34 7.18L-111.66 7.77L-111.66 16.23L-112.64 16.77L-113.04 16.23Q-113.58 15.53-115.12 15.53L-115.12 15.53L-134.90 15.53L-135.44 13.95L-134.40 13.65Q-132.57 13.11-131.98 12.27Q-131.39 11.43-131.39 9.30L-131.39 9.30L-131.39-13.39Q-131.39-15.67-132.03-16.56Q-132.67-17.45-134.55-17.99L-134.55-17.99L-135.69-18.29L-135.09-19.97L-124.26-19.97L-123.62-19.18L-124.26-18.29Q-125.50-16.66-126.00-14.83Q-126.49-13.00-126.49-10.03L-126.49-10.03L-126.49 8.96Z"/><path fill="#DB9E36" opacity="1" d="M-87.87 15.53L-88.46 13.85L-87.33 13.56Q-86.14 13.26-85.62 12.76Q-85.10 12.27-85.10 11.38L-85.10 11.38Q-85.10 10.59-85.65 8.96L-85.65 8.96L-88.02 2.03L-99.44 2.03L-100.63 5.64Q-101.77 9.06-101.77 10.84L-101.77 10.84Q-101.77 12.52-101.07 13.85L-101.07 13.85L-100.63 14.74L-101.57 15.53L-110.67 15.53L-111.26 13.85L-110.12 13.56Q-108.14 13.01-107.25 12.12Q-106.36 11.23-105.57 8.96L-105.57 8.96L-97.81-13.39Q-97.27-15.03-97.27-15.82L-97.27-15.82Q-97.27-16.71-97.78-17.20Q-98.30-17.70-99.49-17.99L-99.49-17.99L-100.63-18.29L-100.03-19.97L-90.49-19.97L-80.55 8.71Q-79.76 10.98-78.82 12.17Q-77.88 13.36-76.10 14.74L-76.10 14.74L-76.74 15.53L-87.87 15.53ZM-93.80-14.88L-98.40-1.03L-89.06-1.03L-93.80-14.88Z"/><path fill="#DB9E36" opacity="1" d="M-52.32-12.75Q-52.81-14.58-53.38-15.50Q-53.95-16.41-54.94-16.78Q-55.93-17.15-57.71-17.15L-57.71-17.15L-59.93-17.15Q-60.97-17.15-61.29-16.43Q-61.61-15.72-61.61-13.39L-61.61-13.39L-61.61 8.96Q-61.61 11.23-60.97 12.12Q-60.33 13.01-58.45 13.56L-58.45 13.56L-57.31 13.85L-57.90 15.53L-68.73 15.53L-69.38 14.74L-68.73 13.85Q-67.50 12.22-67.00 10.39Q-66.51 8.56-66.51 5.59L-66.51 5.59L-66.51-13.39Q-66.51-15.72-66.83-16.43Q-67.15-17.15-68.19-17.15L-68.19-17.15L-70.41-17.15Q-72.20-17.15-73.18-16.78Q-74.17-16.41-74.74-15.50Q-75.31-14.58-75.80-12.75L-75.80-12.75L-76.10-11.61L-77.78-12.21L-77.78-21.01L-76.99-21.65L-76.10-21.01Q-74.72-19.97-70.46-19.97L-70.46-19.97L-57.66-19.97Q-53.40-19.97-52.02-21.01L-52.02-21.01L-51.13-21.65L-50.34-21.01L-50.34-12.21L-52.02-11.61L-52.32-12.75Z"/><path fill="#DB9E36" opacity="1" d="M-29.97 15.53L-30.56 13.85L-29.42 13.56Q-28.24 13.26-27.72 12.76Q-27.20 12.27-27.20 11.38L-27.20 11.38Q-27.20 10.59-27.74 8.96L-27.74 8.96L-30.11 2.03L-41.54 2.03L-42.72 5.64Q-43.86 9.06-43.86 10.84L-43.86 10.84Q-43.86 12.52-43.17 13.85L-43.17 13.85L-42.72 14.74L-43.66 15.53L-52.76 15.53L-53.36 13.85L-52.22 13.56Q-50.24 13.01-49.35 12.12Q-48.46 11.23-47.67 8.96L-47.67 8.96L-39.91-13.39Q-39.36-15.03-39.36-15.82L-39.36-15.82Q-39.36-16.71-39.88-17.20Q-40.40-17.70-41.59-17.99L-41.59-17.99L-42.72-18.29L-42.13-19.97L-32.59-19.97L-22.65 8.71Q-21.86 10.98-20.92 12.17Q-19.98 13.36-18.20 14.74L-18.20 14.74L-18.84 15.53L-29.97 15.53ZM-35.90-14.88L-40.50-1.03L-31.15-1.03L-35.90-14.88Z"/><path fill="#DB9E36" opacity="1" d=""/><path fill="#DB9E36" opacity="1" d="M-1.48 15.53L-2.08 13.85L-0.94 13.56Q0.64 13.11 1.43 12.25Q2.23 11.38 2.23 9.50L2.23 9.50L2.23-15.47Q2.23-16.11 1.98-16.39Q1.73-16.66 1.14-16.66L1.14-16.66L-1.73-16.66L-2.32-18.49Q0.05-19.33 3.81-20.00Q7.57-20.66 11.08-20.66L11.08-20.66Q21.41-20.66 25.94-15.54Q30.46-10.43 30.46-2.17L30.46-2.17Q30.46 2.87 28.61 6.88Q26.75 10.89 23.07 13.21Q19.38 15.53 14.04 15.53L14.04 15.53L-1.48 15.53ZM7.12 6.88Q7.12 10.39 8.58 11.70Q10.04 13.01 12.46 13.01L12.46 13.01Q25.07 13.01 25.07-2.27L25.07-2.27Q25.07-6.42 23.64-9.98Q22.20-13.54 19.26-15.72Q16.32-17.89 11.97-17.89L11.97-17.89Q7.12-17.89 7.12-15.62L7.12-15.62L7.12 6.88Z"/><path fill="#DB9E36" opacity="1" d="M62.90 14.25Q60.87 16.23 58.35 16.23L58.35 16.23Q55.93 16.23 54.44 14.84Q52.96 13.46 51.53 10.44L51.53 10.44L47.77 2.48Q47.32 1.49 46.65 1.05Q45.99 0.60 44.40 0.01L44.40 0.01Q43.47-0.34 43.47-1.13L43.47-1.13Q43.47-1.62 43.66-1.97Q43.86-2.32 44.26-2.32L44.26-2.32Q44.45-2.32 45.07-2.14Q45.69-1.97 46.68-1.97L46.68-1.97Q50.39-1.97 52.47-4.07Q54.54-6.17 54.54-9.69L54.54-9.69Q54.54-13.29 52.34-15.59Q50.14-17.89 46.14-17.89L46.14-17.89Q42.38-17.89 42.38-15.62L42.38-15.62L42.38 5.59Q42.38 8.56 42.87 10.37Q43.37 12.17 44.60 13.85L44.60 13.85L45.25 14.74L44.60 15.53L33.77 15.53L33.18 13.85L34.32 13.56Q36.20 13.06 36.84 12.12Q37.48 11.18 37.48 8.96L37.48 8.96L37.48-15.47Q37.48-16.11 37.23-16.39Q36.99-16.66 36.39-16.66L36.39-16.66L33.53-16.66L32.93-18.49Q35.06-19.33 38.55-20.00Q42.03-20.66 45.25-20.66L45.25-20.66Q52.56-20.66 56.12-17.65Q59.68-14.63 59.68-9.83L59.68-9.83Q59.68-6.17 57.66-3.45Q55.63-0.73 51.67 0.20L51.67 0.20Q52.76 0.95 53.65 2.63L53.65 2.63L58.25 11.97Q59.04 13.51 60.13 13.51L60.13 13.51Q61.07 13.51 62.06 12.81L62.06 12.81L62.90 14.25Z"/><path fill="#DB9E36" opacity="1" d="M86.44 15.53L85.84 13.85L86.98 13.56Q88.17 13.26 88.69 12.76Q89.21 12.27 89.21 11.38L89.21 11.38Q89.21 10.59 88.66 8.96L88.66 8.96L86.29 2.03L74.87 2.03L73.68 5.64Q72.54 9.06 72.54 10.84L72.54 10.84Q72.54 12.52 73.23 13.85L73.23 13.85L73.68 14.74L72.74 15.53L63.64 15.53L63.05 13.85L64.18 13.56Q66.16 13.01 67.05 12.12Q67.94 11.23 68.73 8.96L68.73 8.96L76.50-13.39Q77.04-15.03 77.04-15.82L77.04-15.82Q77.04-16.71 76.52-17.20Q76.00-17.70 74.82-17.99L74.82-17.99L73.68-18.29L74.27-19.97L83.82-19.97L93.75 8.71Q94.55 10.98 95.49 12.17Q96.43 13.36 98.21 14.74L98.21 14.74L97.56 15.53L86.44 15.53ZM80.50-14.88L75.90-1.03L85.25-1.03L80.50-14.88Z"/><path fill="#DB9E36" opacity="1" d="M123.52 11.48Q119.67 14.69 114.82 14.69L114.82 14.69Q109.83 14.69 106.36 12.37Q102.90 10.05 101.20 6.01Q99.49 1.98 99.49-3.06L99.49-3.06Q99.49-7.86 101.32-11.86Q103.15-15.87 106.83-18.26Q110.52-20.66 115.86-20.66L115.86-20.66Q119.32-20.66 122.01-19.67Q124.71-18.68 126.24-16.93Q127.78-15.17 127.78-12.90L127.78-12.90Q127.78-10.38 126.27-8.75Q124.76-7.11 122.48-7.11L122.48-7.11Q121.74-7.11 121.59-7.21Q121.45-7.31 121.45-7.71L121.45-7.71Q121.45-7.86 121.87-8.55Q122.29-9.24 122.61-10.11Q122.93-10.97 122.93-12.21L122.93-12.21Q122.93-14.73 120.98-16.31Q119.02-17.89 115.86-17.89L115.86-17.89Q111.95-17.89 109.48-15.67Q107.01-13.44 105.92-10.13Q104.83-6.82 104.83-3.31L104.83-3.31Q104.83 0.80 106.09 4.19Q107.35 7.57 109.73 9.55Q112.10 11.53 115.26 11.53L115.26 11.53Q120.16 11.53 123.52 8.17L123.52 8.17L123.52 5.64Q123.52 3.37 122.88 2.48Q122.24 1.59 120.36 1.05L120.36 1.05L119.22 0.75L119.81-0.93L130.20-0.93L130.84-0.14L130.20 0.75Q128.96 2.38 128.47 4.21Q127.97 6.04 127.97 9.01L127.97 9.01L127.97 14.74Q127.97 29.28 116.20 29.28L116.20 29.28Q113.29 29.28 111.26 28.27Q109.23 27.25 108.22 25.65Q107.20 24.04 107.20 22.21L107.20 22.21Q107.20 19.74 108.89 17.98Q110.57 16.23 113.48 16.23L113.48 16.23Q113.98 16.23 114.20 16.40Q114.42 16.57 114.42 16.77L114.42 16.77Q114.42 16.97 113.73 17.71Q113.04 18.45 112.52 19.49Q112.00 20.53 112.00 22.11L112.00 22.11Q112.00 24.09 113.36 25.40Q114.72 26.71 117.05 26.71L117.05 26.71Q120.26 26.71 121.89 24.24Q123.52 21.76 123.52 16.13L123.52 16.13L123.52 11.48Z"/><path fill="#DB9E36" opacity="1" d="M154.53 15.53L153.93 13.85L155.07 13.56Q156.26 13.26 156.78 12.76Q157.30 12.27 157.30 11.38L157.30 11.38Q157.30 10.59 156.75 8.96L156.75 8.96L154.38 2.03L142.96 2.03L141.77 5.64Q140.63 9.06 140.63 10.84L140.63 10.84Q140.63 12.52 141.32 13.85L141.32 13.85L141.77 14.74L140.83 15.53L131.73 15.53L131.14 13.85L132.28 13.56Q134.25 13.01 135.14 12.12Q136.03 11.23 136.82 8.96L136.82 8.96L144.59-13.39Q145.13-15.03 145.13-15.82L145.13-15.82Q145.13-16.71 144.61-17.20Q144.09-17.70 142.91-17.99L142.91-17.99L141.77-18.29L142.36-19.97L151.91-19.97L161.85 8.71Q162.64 10.98 163.58 12.17Q164.52 13.36 166.30 14.74L166.30 14.74L165.65 15.53L154.53 15.53ZM148.59-14.88L143.99-1.03L153.34-1.03L148.59-14.88Z"/></g><g transform="matrix(-2.0746508412885056 0.1490767813608154 -0.09890671071054097 -1.3764510389317954 249.4198194268077 329.8712950752848)"  >
<path style="stroke: none; stroke-width: 1; stroke-dasharray: none; stroke-linecap: butt; stroke-dashoffset: 0; stroke-linejoin: miter; stroke-miterlimit: 4; fill: rgb(219,158,54); fill-rule: nonzero; opacity: 1;"  transform=" translate(-50.1, -50.311679658516475)" d="M 91.3 45.1 c -25.1 11.4 -57.5 11.4 -82.5 0 c -0.5 -0.2 -1.1 0 -1.3 0.5 c -0.2 0.5 0 1.1 0.5 1.3 c 12.8 5.8 27.4 8.7 42.1 8.7 s 29.3 -2.9 42.1 -8.7 c 0.5 -0.2 0.7 -0.8 0.5 -1.3 C 92.4 45.1 91.8 44.9 91.3 45.1 z" stroke-linecap="round" />
</g>
<g transform="matrix(1.6187749999999999 -3.9649e-16 3.9649e-16 1.6187749999999996 248.419819426807 175.25100000000003)"  >
<g style=""   >
		<g transform="matrix(1 0 0 1 0.5 0.5)"  >
<path style="stroke: none; stroke-width: 1; stroke-dasharray: none; stroke-linecap: butt; stroke-dashoffset: 0; stroke-linejoin: miter; stroke-miterlimit: 4; fill: rgb(219,158,54); fill-rule: nonzero; opacity: 1;"  transform=" translate(-40, -40)" d="M 40 68.708 c -15.83 0 -28.708 -12.879 -28.708 -28.709 C 11.292 24.17 24.17 11.292 40 11.292 S 68.708 24.17 68.708 39.999 C 68.708 55.829 55.83 68.708 40 68.708 z M 40 14.292 c -14.176 0 -25.708 11.532 -25.708 25.707 c 0 14.176 11.532 25.709 25.708 25.709 s 25.708 -11.533 25.708 -25.709 C 65.708 25.824 54.176 14.292 40 14.292 z" stroke-linecap="round" />
</g>
		<g transform="matrix(1 0 0 1 0.5 0.5)"  >
<path style="stroke: none; stroke-width: 1; stroke-dasharray: none; stroke-linecap: butt; stroke-dashoffset: 0; stroke-linejoin: miter; stroke-miterlimit: 4; fill: rgb(219,158,54); fill-rule: nonzero; opacity: 1;"  transform=" translate(-40, -40)" d="M 40.001 20.036 c -11.027 0 -19.965 8.938 -19.965 19.965 c 0 11.025 8.938 19.963 19.965 19.963 c 11.025 0 19.963 -8.938 19.963 -19.963 C 59.964 28.975 51.026 20.036 40.001 20.036 z M 40.001 57.562 c -9.684 0 -17.563 -7.877 -17.563 -17.561 s 7.879 -17.562 17.563 -17.562 c 9.683 0 17.561 7.878 17.561 17.562 S 49.684 57.562 40.001 57.562 z" stroke-linecap="round" />
</g>
		<g transform="matrix(1 0 0 1 0.8479999999999968 -22.868)"  >
<circle style="stroke: none; stroke-width: 1; stroke-dasharray: none; stroke-linecap: butt; stroke-dashoffset: 0; stroke-linejoin: miter; stroke-miterlimit: 4; fill: rgb(219,158,54); fill-rule: nonzero; opacity: 1;"  cx="0" cy="0" r="2.185" />
</g>
		<g transform="matrix(1 0 0 1 5.1460000000000035 -22.288)"  >
<circle style="stroke: none; stroke-width: 1; stroke-dasharray: none; stroke-linecap: butt; stroke-dashoffset: 0; stroke-linejoin: miter; stroke-miterlimit: 4; fill: rgb(219,158,54); fill-rule: nonzero; opacity: 1;"  cx="0" cy="0" r="2.184" />
</g>
		<g transform="matrix(1 0 0 1 9.259000000000004 -20.905)"  >
<circle style="stroke: none; stroke-width: 1; stroke-dasharray: none; stroke-linecap: butt; stroke-dashoffset: 0; stroke-linejoin: miter; stroke-miterlimit: 4; fill: rgb(219,158,54); fill-rule: nonzero; opacity: 1;"  cx="0" cy="0" r="2.184" />
</g>
		<g transform="matrix(1 0 0 1 13.035 -18.769)"  >
<circle style="stroke: none; stroke-width: 1; stroke-dasharray: none; stroke-linecap: butt; stroke-dashoffset: 0; stroke-linejoin: miter; stroke-miterlimit: 4; fill: rgb(219,158,54); fill-rule: nonzero; opacity: 1;"  cx="0" cy="0" r="2.184" />
</g>
		<g transform="matrix(1 0 0 1 16.339000000000002 -15.957999999999998)"  >
<circle style="stroke: none; stroke-width: 1; stroke-dasharray: none; stroke-linecap: butt; stroke-dashoffset: 0; stroke-linejoin: miter; stroke-miterlimit: 4; fill: rgb(219,158,54); fill-rule: nonzero; opacity: 1;"  cx="0" cy="0" r="2.184" />
</g>
		<g transform="matrix(1 0 0 1 19.05200000000001 -12.572)"  >
<circle style="stroke: none; stroke-width: 1; stroke-dasharray: none; stroke-linecap: butt; stroke-dashoffset: 0; stroke-linejoin: miter; stroke-miterlimit: 4; fill: rgb(219,158,54); fill-rule: nonzero; opacity: 1;"  cx="0" cy="0" r="2.184" />
</g>
		<g transform="matrix(1 0 0 1 21.076999999999998 -8.735)"  >
<circle style="stroke: none; stroke-width: 1; stroke-dasharray: none; stroke-linecap: butt; stroke-dashoffset: 0; stroke-linejoin: miter; stroke-miterlimit: 4; fill: rgb(219,158,54); fill-rule: nonzero; opacity: 1;"  cx="0" cy="0" r="2.183" />
</g>
		<g transform="matrix(1 0 0 1 22.339000000000002 -4.582999999999996)"  >
<circle style="stroke: none; stroke-width: 1; stroke-dasharray: none; stroke-linecap: butt; stroke-dashoffset: 0; stroke-linejoin: miter; stroke-miterlimit: 4; fill: rgb(219,158,54); fill-rule: nonzero; opacity: 1;"  cx="0" cy="0" r="2.184" />
</g>
		<g transform="matrix(1 0 0 1 23.293061110287447 0.22884824468860643)"  >
<path style="stroke: none; stroke-width: 1; stroke-dasharray: none; stroke-linecap: butt; stroke-dashoffset: 0; stroke-linejoin: miter; stroke-miterlimit: 4; fill: rgb(219,158,54); fill-rule: nonzero; opacity: 1;"  transform=" translate(-62.79306111028745, -39.728848244688606)" d="M 64.97 39.55 c 0.1 1.201 -0.796 2.256 -2 2.355 c -1.199 0.098 -2.252 -0.797 -2.354 -1.996 c -0.099 -1.202 0.794 -2.257 1.995 -2.356 C 63.813 37.453 64.87 38.346 64.97 39.55 z" stroke-linecap="round" />
</g>
		<g transform="matrix(1 0 0 1 22.925488448992283 4.553043981417115)"  >
<path style="stroke: none; stroke-width: 1; stroke-dasharray: none; stroke-linecap: butt; stroke-dashoffset: 0; stroke-linejoin: miter; stroke-miterlimit: 4; fill: rgb(219,158,54); fill-rule: nonzero; opacity: 1;"  transform=" translate(-62.42548844899228, -44.05304398141712)" d="M 64.501 43.372 c 0.377 1.146 -0.248 2.379 -1.396 2.758 c -1.146 0.373 -2.377 -0.252 -2.755 -1.396 c -0.377 -1.146 0.248 -2.379 1.393 -2.756 C 62.89 41.601 64.125 42.226 64.501 43.372 z" stroke-linecap="round" />
</g>
		<g transform="matrix(1 0 0 1 21.74499450684846 8.729258330829378)"  >
<path style="stroke: none; stroke-width: 1; stroke-dasharray: none; stroke-linecap: butt; stroke-dashoffset: 0; stroke-linejoin: miter; stroke-miterlimit: 4; fill: rgb(219,158,54); fill-rule: nonzero; opacity: 1;"  transform=" translate(-61.24499450684846, -48.22925833082938)" d="M 63.423 48.079 c 0.084 1.203 -0.826 2.246 -2.031 2.33 c -1.201 0.08 -2.24 -0.828 -2.325 -2.031 c -0.084 -1.205 0.824 -2.246 2.026 -2.328 C 62.298 45.966 63.341 46.874 63.423 48.079 z" stroke-linecap="round" />
</g>
		<g transform="matrix(1 0 0 1 19.295000000000005 12.100000000000012)"  >
<circle style="stroke: none; stroke-width: 1; stroke-dasharray: none; stroke-linecap: butt; stroke-dashoffset: 0; stroke-linejoin: miter; stroke-miterlimit: 4; fill: rgb(219,158,54); fill-rule: nonzero; opacity: 1;"  cx="0" cy="0" r="2.184" />
</g>
		<g transform="matrix(1 0 0 1 16.649000000000004 15.54000000000001)"  >
<circle style="stroke: none; stroke-width: 1; stroke-dasharray: none; stroke-linecap: butt; stroke-dashoffset: 0; stroke-linejoin: miter; stroke-miterlimit: 4; fill: rgb(219,158,54); fill-rule: nonzero; opacity: 1;"  cx="0" cy="0" r="2.184" />
</g>
		<g transform="matrix(1 0 0 1 13.9044415406138 18.91785843093176)"  >
<path style="stroke: none; stroke-width: 1; stroke-dasharray: none; stroke-linecap: butt; stroke-dashoffset: 0; stroke-linejoin: miter; stroke-miterlimit: 4; fill: rgb(219,158,54); fill-rule: nonzero; opacity: 1;"  transform=" translate(-53.4044415406138, -58.41785843093176)" d="M 55.55 58.005 c 0.227 1.188 -0.552 2.33 -1.738 2.559 c -1.183 0.225 -2.324 -0.553 -2.553 -1.736 c -0.227 -1.186 0.549 -2.33 1.733 -2.555 C 54.178 56.044 55.323 56.821 55.55 58.005 z" stroke-linecap="round" />
</g>
		<g transform="matrix(1 0 0 1 10.169465050865789 21.126473817910085)"  >
<path style="stroke: none; stroke-width: 1; stroke-dasharray: none; stroke-linecap: butt; stroke-dashoffset: 0; stroke-linejoin: miter; stroke-miterlimit: 4; fill: rgb(219,158,54); fill-rule: nonzero; opacity: 1;"  transform=" translate(-49.66946505086579, -60.62647381791008)" d="M 51.784 60.079 c 0.302 1.17 -0.402 2.359 -1.57 2.664 c -1.168 0.299 -2.355 -0.406 -2.659 -1.572 c -0.302 -1.168 0.401 -2.359 1.568 -2.66 C 50.292 58.21 51.483 58.911 51.784 60.079 z" stroke-linecap="round" />
</g>
		<g transform="matrix(1 0 0 1 6.083841149007615 22.588648816542563)"  >
<path style="stroke: none; stroke-width: 1; stroke-dasharray: none; stroke-linecap: butt; stroke-dashoffset: 0; stroke-linejoin: miter; stroke-miterlimit: 4; fill: rgb(219,158,54); fill-rule: nonzero; opacity: 1;"  transform=" translate(-45.58384114900761, -62.08864881654256)" d="M 47.694 61.524 c 0.313 1.168 -0.383 2.363 -1.549 2.676 c -1.166 0.309 -2.359 -0.389 -2.672 -1.551 c -0.311 -1.166 0.383 -2.361 1.549 -2.67 C 46.188 59.667 47.386 60.358 47.694 61.524 z" stroke-linecap="round" />
</g>
		<g transform="matrix(1 0 0 1 1.2980000000000045 22.750000000000004)"  >
<circle style="stroke: none; stroke-width: 1; stroke-dasharray: none; stroke-linecap: butt; stroke-dashoffset: 0; stroke-linejoin: miter; stroke-miterlimit: 4; fill: rgb(219,158,54); fill-rule: nonzero; opacity: 1;"  cx="0" cy="0" r="2.184" />
</g>
		<g transform="matrix(1 0 0 1 -3.038999999999999 22.597000000000012)"  >
<circle style="stroke: none; stroke-width: 1; stroke-dasharray: none; stroke-linecap: butt; stroke-dashoffset: 0; stroke-linejoin: miter; stroke-miterlimit: 4; fill: rgb(219,158,54); fill-rule: nonzero; opacity: 1;"  cx="0" cy="0" r="2.184" />
</g>
		<g transform="matrix(1 0 0 1 -7.264000000000004 21.625000000000004)"  >
<circle style="stroke: none; stroke-width: 1; stroke-dasharray: none; stroke-linecap: butt; stroke-dashoffset: 0; stroke-linejoin: miter; stroke-miterlimit: 4; fill: rgb(219,158,54); fill-rule: nonzero; opacity: 1;"  cx="0" cy="0" r="2.184" />
</g>
		<g transform="matrix(1 0 0 1 -10.728774545944532 20.36918954684657)"  >
<path style="stroke: none; stroke-width: 1; stroke-dasharray: none; stroke-linecap: butt; stroke-dashoffset: 0; stroke-linejoin: miter; stroke-miterlimit: 4; fill: rgb(219,158,54); fill-rule: nonzero; opacity: 1;"  transform=" translate(-28.771225454055468, -59.86918954684657)" d="M 30.837 59.159 c 0.391 1.146 -0.221 2.387 -1.361 2.777 s -2.38 -0.221 -2.771 -1.361 c -0.389 -1.141 0.218 -2.381 1.358 -2.771 C 29.204 57.411 30.448 58.021 30.837 59.159 z" stroke-linecap="round" />
</g>
		<g transform="matrix(1 0 0 1 -14.29577703436695 17.895889905469726)"  >
<path style="stroke: none; stroke-width: 1; stroke-dasharray: none; stroke-linecap: butt; stroke-dashoffset: 0; stroke-linejoin: miter; stroke-miterlimit: 4; fill: rgb(219,158,54); fill-rule: nonzero; opacity: 1;"  transform=" translate(-25.20422296563305, -57.39588990546973)" d="M 27.265 56.675 c 0.399 1.143 -0.205 2.385 -1.342 2.783 c -1.14 0.398 -2.383 -0.205 -2.78 -1.342 c -0.397 -1.141 0.202 -2.383 1.339 -2.781 C 25.622 54.935 26.868 55.536 27.265 56.675 z" stroke-linecap="round" />
</g>
		<g transform="matrix(1 0 0 1 -17.32852750399541 14.793333042462613)"  >
<path style="stroke: none; stroke-width: 1; stroke-dasharray: none; stroke-linecap: butt; stroke-dashoffset: 0; stroke-linejoin: miter; stroke-miterlimit: 4; fill: rgb(219,158,54); fill-rule: nonzero; opacity: 1;"  transform=" translate(-22.17147249600459, -54.29333304246261)" d="M 24.249 53.62 c 0.372 1.152 -0.262 2.383 -1.408 2.752 c -1.148 0.371 -2.378 -0.264 -2.748 -1.408 c -0.369 -1.15 0.26 -2.379 1.407 -2.748 C 22.649 51.843 23.881 52.474 24.249 53.62 z" stroke-linecap="round" />
</g>
		<g transform="matrix(1 0 0 1 -19.718668094756566 11.171831345205671)"  >
<path style="stroke: none; stroke-width: 1; stroke-dasharray: none; stroke-linecap: butt; stroke-dashoffset: 0; stroke-linejoin: miter; stroke-miterlimit: 4; fill: rgb(219,158,54); fill-rule: nonzero; opacity: 1;"  transform=" translate(-19.781331905243434, -50.671831345205675)" d="M 21.763 49.753 c 0.508 1.102 0.027 2.398 -1.067 2.902 c -1.097 0.508 -2.393 0.023 -2.897 -1.068 c -0.506 -1.096 -0.028 -2.393 1.065 -2.898 C 19.961 48.183 21.259 48.659 21.763 49.753 z" stroke-linecap="round" />
</g>
		<g transform="matrix(1 0 0 1 -21.380074273851765 7.165146317038246)"  >
<path style="stroke: none; stroke-width: 1; stroke-dasharray: none; stroke-linecap: butt; stroke-dashoffset: 0; stroke-linejoin: miter; stroke-miterlimit: 4; fill: rgb(219,158,54); fill-rule: nonzero; opacity: 1;"  transform=" translate(-18.119925726148235, -46.66514631703825)" d="M 20.162 45.888 c 0.429 1.133 -0.144 2.395 -1.269 2.82 c -1.131 0.43 -2.391 -0.145 -2.816 -1.27 c -0.426 -1.129 0.141 -2.389 1.268 -2.816 C 18.476 44.194 19.735 44.763 20.162 45.888 z" stroke-linecap="round" />
</g>
		<g transform="matrix(1 0 0 1 -22.255648232785234 2.9144188307070067)"  >
<path style="stroke: none; stroke-width: 1; stroke-dasharray: none; stroke-linecap: butt; stroke-dashoffset: 0; stroke-linejoin: miter; stroke-miterlimit: 4; fill: rgb(219,158,54); fill-rule: nonzero; opacity: 1;"  transform=" translate(-17.244351767214766, -42.41441883070701)" d="M 19.226 41.497 c 0.508 1.1 0.027 2.396 -1.066 2.9 c -1.098 0.508 -2.395 0.023 -2.898 -1.066 c -0.506 -1.098 -0.028 -2.393 1.066 -2.898 C 17.425 39.925 18.722 40.403 19.226 41.497 z" stroke-linecap="round" />
</g>
		<g transform="matrix(1 0 0 1 -22.309708446665432 -1.4201579640173243)"  >
<path style="stroke: none; stroke-width: 1; stroke-dasharray: none; stroke-linecap: butt; stroke-dashoffset: 0; stroke-linejoin: miter; stroke-miterlimit: 4; fill: rgb(219,158,54); fill-rule: nonzero; opacity: 1;"  transform=" translate(-17.190291553334568, -38.07984203598268)" d="M 19.196 37.219 c 0.479 1.113 -0.04 2.396 -1.146 2.868 c -1.113 0.479 -2.395 -0.045 -2.867 -1.147 c -0.475 -1.111 0.039 -2.393 1.148 -2.867 C 17.441 35.596 18.726 36.11 19.196 37.219 z" stroke-linecap="round" />
</g>
		<g transform="matrix(1 0 0 1 -21.544728921782585 -5.691442241969215)"  >
<path style="stroke: none; stroke-width: 1; stroke-dasharray: none; stroke-linecap: butt; stroke-dashoffset: 0; stroke-linejoin: miter; stroke-miterlimit: 4; fill: rgb(219,158,54); fill-rule: nonzero; opacity: 1;"  transform=" translate(-17.955271078217415, -33.80855775803079)" d="M 19.97 32.967 c 0.467 1.118 -0.064 2.396 -1.176 2.858 c -1.117 0.466 -2.394 -0.067 -2.855 -1.178 c -0.463 -1.114 0.063 -2.391 1.176 -2.854 C 18.229 31.327 19.509 31.854 19.97 32.967 z" stroke-linecap="round" />
</g>
		<g transform="matrix(1 0 0 1 -19.984899165909383 -9.741136766572527)"  >
<path style="stroke: none; stroke-width: 1; stroke-dasharray: none; stroke-linecap: butt; stroke-dashoffset: 0; stroke-linejoin: miter; stroke-miterlimit: 4; fill: rgb(219,158,54); fill-rule: nonzero; opacity: 1;"  transform=" translate(-19.515100834090617, -29.758863233427473)" d="M 21.591 29.086 c 0.375 1.153 -0.261 2.383 -1.405 2.752 c -1.151 0.372 -2.38 -0.266 -2.749 -1.408 c -0.369 -1.149 0.26 -2.38 1.408 -2.75 C 19.993 27.309 21.225 27.939 21.591 29.086 z" stroke-linecap="round" />
</g>
		<g transform="matrix(1 0 0 1 -17.688816609755513 -13.421675559279882)"  >
<path style="stroke: none; stroke-width: 1; stroke-dasharray: none; stroke-linecap: butt; stroke-dashoffset: 0; stroke-linejoin: miter; stroke-miterlimit: 4; fill: rgb(219,158,54); fill-rule: nonzero; opacity: 1;"  transform=" translate(-21.811183390244487, -26.078324440720117)" d="M 23.974 25.778 c 0.166 1.201 -0.675 2.301 -1.865 2.465 c -1.199 0.164 -2.297 -0.679 -2.461 -1.869 c -0.164 -1.194 0.672 -2.297 1.866 -2.46 C 22.711 23.749 23.813 24.586 23.974 25.778 z" stroke-linecap="round" />
</g>
		<g transform="matrix(1 0 0 1 -14.740308572836861 -16.6011013113597)"  >
<path style="stroke: none; stroke-width: 1; stroke-dasharray: none; stroke-linecap: butt; stroke-dashoffset: 0; stroke-linejoin: miter; stroke-miterlimit: 4; fill: rgb(219,158,54); fill-rule: nonzero; opacity: 1;"  transform=" translate(-24.75969142716314, -22.8988986886403)" d="M 26.813 22.156 c 0.412 1.141 -0.182 2.392 -1.313 2.798 c -1.138 0.411 -2.387 -0.186 -2.795 -1.315 c -0.408 -1.135 0.18 -2.387 1.314 -2.794 C 25.157 20.433 26.409 21.024 26.813 22.156 z" stroke-linecap="round" />
</g>
		<g transform="matrix(1 0 0 1 -11.239345180771275 -19.16620947189089)"  >
<path style="stroke: none; stroke-width: 1; stroke-dasharray: none; stroke-linecap: butt; stroke-dashoffset: 0; stroke-linejoin: miter; stroke-miterlimit: 4; fill: rgb(219,158,54); fill-rule: nonzero; opacity: 1;"  transform=" translate(-28.260654819228726, -20.33379052810911)" d="M 30.089 19.142 c 0.662 1.016 0.371 2.369 -0.637 3.023 c -1.014 0.661 -2.367 0.366 -3.021 -0.64 c -0.658 -1.011 -0.373 -2.365 0.638 -3.021 C 28.081 17.844 29.434 18.131 30.089 19.142 z" stroke-linecap="round" />
</g>
		<g transform="matrix(1 0 0 1 -7.319066834347765 -21.0226258171376)"  >
<path style="stroke: none; stroke-width: 1; stroke-dasharray: none; stroke-linecap: butt; stroke-dashoffset: 0; stroke-linejoin: miter; stroke-miterlimit: 4; fill: rgb(219,158,54); fill-rule: nonzero; opacity: 1;"  transform=" translate(-32.180933165652235, -18.4773741828624)" d="M 34.202 17.651 c 0.458 1.123 -0.084 2.396 -1.196 2.849 c -1.122 0.458 -2.394 -0.088 -2.847 -1.199 c -0.455 -1.117 0.081 -2.393 1.197 -2.845 C 32.476 15.998 33.749 16.535 34.202 17.651 z" stroke-linecap="round" />
</g>
		<g transform="matrix(1 0 0 1 -3.118135764735655 -22.104321429916954)"  >
<path style="stroke: none; stroke-width: 1; stroke-dasharray: none; stroke-linecap: butt; stroke-dashoffset: 0; stroke-linejoin: miter; stroke-miterlimit: 4; fill: rgb(219,158,54); fill-rule: nonzero; opacity: 1;"  transform=" translate(-36.381864235264345, -17.395678570083046)" d="M 38.522 16.966 c 0.238 1.19 -0.535 2.338 -1.713 2.571 c -1.188 0.237 -2.334 -0.539 -2.568 -1.715 c -0.235 -1.184 0.532 -2.335 1.713 -2.567 C 37.141 15.017 38.29 15.785 38.522 16.966 z" stroke-linecap="round" />
</g>
</g>
</g>
<g transform="matrix(1 0 0 1 252.20000000000005 355.07680805267796)" style=""  ><path fill="#DB9E36" opacity="1" d="M-73.01 7.10C-72.96 7.15-72.91 7.15-72.84 7.15C-72.84 7.38-72.86 7.63-72.86 7.86C-72.86 8.24-72.69 9.14-72.21 9.14C-71.02 9.14-70.97 7.00-70.67 5.77C-69.76 1.94-68.88-1.86-67.90-5.71C-67.77-6.37-67.35-7.10-67.35-7.75C-67.35-8.23-67.67-8.51-68.45-8.51C-68.83-8.51-69.11-8.38-69.31-7.95C-71.07-4.38-72.76-0.83-74.57 2.72C-74.67 2.92-74.98 3.13-75.20 3.35C-75.35 3.08-75.58 2.82-75.61 2.60C-75.78 0.78-75.96-1.05-76.16-2.87C-76.24-3.98-76.29-5.08-76.41-6.14C-76.51-6.92-77.04-7.22-77.80-7.22C-78.63-7.22-78.85-6.75-78.90-6.09L-79.41-2.99C-79.76-0.58-80.16 1.79-80.42 4.23C-80.44 4.36-80.44 4.46-80.44 4.59C-80.44 5.49-80.11 7.10-79.33 7.10C-78.83 6.98-78.63 6.17-78.55 5.54L-77.75-0.83C-77.70-1.21-77.47-1.63-77.34-2.06C-76.69 0.46-76.44 3.03-75.96 5.59C-75.93 5.87-75.58 6.10-75.38 6.40C-75.15 6.15-74.83 5.97-74.72 5.72C-73.89 3.88-73.24 2.02-72.36 0.13C-72.31-0.02-72.11-0.07-71.95-0.20C-71.90-0.05-71.78 0.10-71.78 0.23C-71.78 0.66-71.88 1.09-71.95 1.51Z"/><path fill="#DB9E36" opacity="1" d="M-63.27-0.83C-63.90-0.58-64.63-0.40-65.13 0.03C-66.59 1.09-67.60 2.97-67.60 4.84C-67.60 5.54-67.09 6.12-66.36 6.12C-65.53 6.12-64.68 5.37-64.50 5.37C-64.27 5.37-64.15 7.43-63.17 7.43C-62.18 7.43-62.13 3.33-61.71 1.09C-61.68 0.94-61.68 0.78-61.68 0.66C-61.68-0.22-62.18-0.73-63.27-0.83ZM-63.27 1.31C-64.02 2.45-65.00 4.54-65.89 4.54C-66.19 4.54-66.29 4.13-66.29 4.01C-66.29 3.30-65.23 1.79-64.53 0.86C-64.45 0.73-64.17 0.68-63.92 0.68C-63.59 0.68-63.57 0.81-63.27 1.31Z"/><path fill="#DB9E36" opacity="1" d="M-61.43 12.90L-61.33 12.90C-61.33 13.10-61.35 13.30-61.35 13.48C-61.35 13.93-61.10 14.31-60.90 14.66C-60.62 14.43-60.25 14.26-60.12 14.00C-59.21 11.59-59.06 8.94-58.58 6.40C-58.51 6.12-58.05 5.87-57.85 5.87C-55.61 5.87-54.28 1.16-54.28-0.75C-54.28-1.43-54.71-2.26-55.56-2.26C-56.32-2.26-56.97-1.03-57.27-1.03C-57.50-1.03-58.05-2.16-58.86-2.16C-59.82-2.16-59.59-0.27-59.72 0.71C-59.94 2.65-60.27 4.61-60.57 6.53ZM-56.44 3.43C-56.92 2.90-57.48 2.42-57.48 1.87C-57.48 1.82-57.45 1.79-57.45 1.74C-57.02 0.86-56.32-1.13-55.66-1.13C-55.51-1.13-55.18-0.90-55.18-0.63C-55.34 0.86-55.84 2.19-56.44 3.43Z"/><path fill="#DB9E36" opacity="1" d="M-46.80-4.05C-46.87-4.05-46.95-4.08-47.00-4.08C-47.71-4.08-48.34-1.73-48.86-0.58C-48.96-0.35-49.24-0.20-49.42-0.07C-49.49-0.32-49.57-0.63-49.57-0.90C-49.57-1.00-49.54-1.13-49.49-1.26C-49.07-4.08-49.24-4.28-48.79-7.12C-48.79-7.20-48.76-7.27-48.76-7.35C-48.76-7.80-49.04-8.18-49.69-8.18C-50.10-8.18-50.37-7.93-50.45-7.45L-51.00-4.40C-51.71-1.21-52.49 3.08-53.27 7.26C-53.12 7.68-53.09 8.26-52.99 8.77C-52.94 8.94-52.72 9.14-52.62 9.32C-52.46 9.19-52.21 9.09-52.14 8.94C-51.56 7.46-51.00 5.92-50.65 4.28C-50.53 4.26-50.37 4.26-50.25 4.26C-48.13 4.26-46.60 6.88-45.92 8.44C-45.84 8.64-45.72 8.74-45.59 8.74C-45.26 8.74-45.04 8.14-45.04 7.66C-45.04 6.58-46.92 3.18-48.91 2.27L-48.06 1.41C-47.00 0.20-46.09-1.53-46.09-3.14C-46.09-3.60-46.32-3.92-46.80-4.05Z"/><path fill="#DB9E36" opacity="1" d="M-44.53 5.19C-44.43 6.73-44.23 8.09-42.42 8.09C-41.44 8.09-39.92 7.28-39.92 6.22C-39.92 6.00-40.05 5.85-40.33 5.85C-40.76 5.85-41.21 6.15-41.66 6.20C-42.59 6.20-42.54 5.44-42.54 4.96C-42.54 3.73-41.26 3.40-40.65 2.32C-40.18 1.62-39.30 0.28-39.30-0.53C-39.30-1.48-39.95-2.01-40.81-2.01C-43.32-2.01-44.46 2.62-44.53 5.19ZM-40.28 0.03C-40.60 0.63-41.16 1.82-41.59 1.82C-41.64 1.82-41.84 1.54-41.84 1.46C-41.64 0.91-41.18-0.60-40.76-0.60C-40.55-0.60-40.43-0.27-40.28 0.03Z"/><path fill="#DB9E36" opacity="1" d="M-28.44 1.84C-28.52 1.84-28.57 1.82-28.59 1.82L-28.59 1.59C-28.59 0.91-29.07 0.38-29.30 0.38C-30.36 0.38-30.73 1.26-31.39 2.04C-31.64 2.35-31.97 2.50-32.24 2.85C-32.29 2.22-32.52 1.04-32.85 1.04C-33.55 1.04-34.31 2.14-35.04 2.70C-35.22 2.87-35.52 2.87-35.79 3.00C-35.82 2.75-35.90 2.50-35.90 2.27C-35.90 1.82-35.74 1.41-35.74 1.01C-35.74 0.48-35.90-0.10-36.47-0.10C-37.03-0.10-37.56 0.10-37.68 0.76C-38.09 2.80-38.46 4.79-38.79 6.78L-38.79 6.95C-38.79 7.68-38.41 8.14-38.11 8.14C-37.71 8.14-37.15 7.43-36.93 6.70C-36.37 4.84-35.12 3.10-33.50 2.07C-33.45 2.27-33.35 2.47-33.35 2.70C-33.35 3.48-33.70 4.28-33.70 5.06C-33.70 5.29-33.55 5.52-33.45 5.74C-33.20 5.64-32.85 5.57-32.70 5.34C-31.82 4.18-31.11 2.90-30.18 1.87C-30.08 1.77-29.85 1.77-29.70 1.72C-29.68 1.87-29.63 2.04-29.63 2.19L-30.18 4.66C-30.43 5.74-30.73 6.85-30.96 7.99C-30.96 8.19-30.73 8.44-30.63 8.69C-30.43 8.51-30.10 8.36-30.05 8.14C-29.25 6.30-28.97 3.93-28.44 1.84Z"/><path fill="#DB9E36" opacity="1" d="M-27.43 4.41L-27.36 4.41C-27.21 5.59-27.06 6.58-26.20 6.58C-25.52 6.58-25.17 5.85-24.64 5.37C-24.46 5.24-24.19 5.14-23.98 5.04L-23.76 5.74C-23.53 6.42-23.25 7.68-22.63 7.68C-22.20 7.68-21.52 7.21-21.52 6.83C-21.52 6.53-21.82 5.95-21.82 5.34C-21.82 5.19-21.79 5.04-21.77 4.89C-21.39 3.10-20.96 1.34-20.51-0.45C-20.48-0.55-20.48-0.63-20.48-0.73C-20.48-1.18-20.79-1.71-21.39-1.71C-21.72-1.71-21.92-1.38-22.10-1.08C-23.08 0.68-24.01 2.42-25.04 4.18C-25.17 4.41-25.45 4.56-25.70 4.71C-25.77 4.41-26.00 4.16-26.00 3.83C-25.77 2.24-25.52 0.68-25.32-0.88C-25.27-1.08-25.19-1.28-25.19-1.48C-25.19-1.68-25.32-1.91-25.75-1.91C-26.20-1.91-26.43-1.61-26.50-1.18C-26.86 0.68-27.13 2.52-27.43 4.41Z"/><path fill="#DB9E36" opacity="1" d="M-12.18-0.10C-12.28-0.07-12.38-0.05-12.45-0.05C-12.70-0.05-12.83-0.22-12.83-0.55C-12.83-1.71-12.43-2.92-12.43-4.13C-12.43-4.55-12.70-4.86-13.06-4.86C-14.09-4.86-14.21-1.73-14.42-0.10C-14.52 0.66-15.07 0.86-16.08 0.86C-16.68 0.86-16.96 0.78-16.96 0.38C-16.96 0.28-16.93 0.15-16.91 0.03C-16.73-0.88-16.63-1.81-16.53-2.77C-16.53-3.02-16.83-3.40-17.09-3.40C-17.21-3.40-17.34-3.37-17.44-3.32C-17.77-2.72-18.17-2.11-18.55-1.38C-18.27-1.36-18.17-1.18-18.17-0.85C-18.17-0.35-18.17 0.76-19.05 0.76C-19.07 0.76-19.10 0.78-19.10 0.83C-19.10 1.04-18.85 1.72-18.85 2.57C-18.85 2.77-18.87 3.00-18.90 3.20C-19.13 4.61-19.48 6.12-19.48 7.51C-19.48 8.39-19.35 9.40-18.60 9.40C-18.19 9.40-18.04 9.09-18.04 8.62C-18.04 8.19-18.17 7.63-18.17 7.23C-18.17 6.05-17.89 4.74-17.66 3.55C-17.34 1.92-17.29 1.92-15.60 1.89L-15.47 1.89C-15.07 1.89-14.87 2.02-14.87 2.35C-14.87 2.85-15.07 3.48-15.15 4.08C-15.32 5.44-15.68 6.88-15.68 8.24C-15.68 8.79-15.30 9.72-14.74 9.72C-14.34 9.72-13.76 9.24-13.76 8.74C-13.76 8.44-14.14 7.91-14.14 7.41C-14.14 7.33-14.11 7.28-14.11 7.21C-13.86 5.52-13.59 3.83-13.28 2.12C-13.13 1.24-11.90 1.11-11.90 0.28C-11.90 0.05-11.97-0.10-12.12-0.10Z"/><path fill="#DB9E36" opacity="1" d="M-10.49 2.52C-9.76 1.84-8.93 1.14-8.07 0.76C-8.55 1.82-9.03 2.75-9.53 3.71C-9.88 4.36-10.24 5.17-10.24 6.00C-10.24 6.80-9.88 7.56-8.83 7.56C-7.54 7.56-6.23 7.05-4.95 6.70C-4.62 6.60-4.47 6.10-4.47 5.57C-4.47 5.01-4.65 4.46-4.90 4.46L-4.95 4.46C-6.23 4.84-7.69 5.32-8.93 5.32C-8.12 3.58-6.86 2.27-6.86-0.12C-6.86-0.90-7.06-1.58-7.69-1.58C-8.73-1.58-9.93-0.40-10.71 0.33C-11.02 0.61-11.12 1.01-11.12 1.44C-11.12 1.14-11.14 2.60-10.61 2.60C-10.59 2.60-10.54 2.57-10.49 2.52Z"/><path fill="#DB9E36" opacity="1" d="M-3.71 4.23C-3.71 6.37-2.71 7.53-1.02 7.53C1.30 7.53 3.41 4.51 3.41 2.02C3.41 1.19 3.24 0.36 2.88-0.47C2.78-0.65 2.51-0.80 2.33-0.98C1.93-0.78 1.72-0.65 1.72-0.27C1.72 0.33 2.08 0.83 2.08 1.36C2.08 2.75 1.20 4.41 0.44 5.72C0.26 6.02-0.44 6.17-0.92 6.37C-1.12 6.00-1.55 5.62-1.55 5.24L-1.55 5.17C-1.20 3.55-0.84 1.89 0.74 0.56C0.84 0.51 0.89 0.33 0.89 0.18C0.89-0.27 0.34-0.47-0.24-0.47C-2.43-0.47-3.56 3.13-3.71 4.23Z"/><path fill="#DB9E36" opacity="1" d="M10.01-2.19C9.98-2.24 9.98-2.34 9.93-2.41C9.91-2.41 9.83-2.36 9.81-2.36C9.51-2.51 9.03-2.62 8.98-2.82C8.88-3.14 8.50-4.81 8.50-5.16L8.50-5.23C9.41-6.82 10.61-8.31 11.42-9.92C11.57-10.22 11.65-10.52 11.65-10.85C11.65-11.88 10.89-12.81 9.96-12.81C9.25-12.81 8.65-12.23 8.27-11.20C8.17-11.20 7.39-8.43 7.24-7.83C6.16-3.37 4.82 1.24 4.67 5.85C4.67 6.80 4.92 7.83 5.25 8.77C5.48 9.19 6.28 9.47 6.71 9.47C7.54 9.47 8.45 8.72 8.80 7.68C9.68 5.09 10.49 2.42 10.69-0.37C10.76-1.33 11.62-1.66 12.48-2.36C12.53-2.39 12.58-2.51 12.58-2.59C12.58-2.74 12.43-2.79 12.28-2.79C12.25-2.79 12.20-2.77 12.18-2.77C11.44-2.56 10.74-2.41 10.01-2.19ZM6.58 5.69L7.57-0.63C7.57-0.78 7.69-0.93 7.69-1.10C7.69-1.23 7.67-1.36 7.67-1.46C7.67-1.76 7.74-1.99 8.27-1.99C8.98-1.99 9.73-1.31 9.73-0.60C9.73-0.55 9.71-0.47 9.71-0.42C9.33 2.12 8.75 4.81 7.77 7.03C7.67 7.26 7.34 7.36 7.14 7.51C6.89 7.13 6.71 6.98 6.71 6.45C6.71 6.20 6.74 5.95 6.74 5.69ZM9.38-9.26C9.53-9.92 9.66-10.55 9.86-11.10C9.93-11.30 10.26-11.45 10.51-11.63C10.66-11.38 10.97-11.05 10.97-10.85L10.97-10.82C10.74-10.19 10.19-8.63 9.68-8.63C9.53-8.63 9.46-9.09 9.38-9.26Z"/><path fill="#DB9E36" opacity="1" d="M16.66-0.83C16.03-0.58 15.30-0.40 14.79 0.03C13.33 1.09 12.33 2.97 12.33 4.84C12.33 5.54 12.83 6.12 13.56 6.12C14.39 6.12 15.25 5.37 15.42 5.37C15.65 5.37 15.78 7.43 16.76 7.43C17.74 7.43 17.79 3.33 18.22 1.09C18.24 0.94 18.24 0.78 18.24 0.66C18.24-0.22 17.74-0.73 16.66-0.83ZM16.66 1.31C15.90 2.45 14.92 4.54 14.04 4.54C13.74 4.54 13.64 4.13 13.64 4.01C13.64 3.30 14.69 1.79 15.40 0.86C15.47 0.73 15.75 0.68 16.00 0.68C16.33 0.68 16.36 0.81 16.66 1.31Z"/><path fill="#DB9E36" opacity="1" d=""/><path fill="#DB9E36" opacity="1" d="M33.55-8.78C33.53-8.78 33.48-8.78 33.43-8.81C33.43-8.99 33.48-9.16 33.48-9.34C33.48-9.59 33.05-10.52 32.67-10.52C32.02-10.52 31.29-9.11 30.86-8.31C29.63-5.96 28.49-3.65 27.21-1.38C26.63-0.35 25.19-0.22 24.16 0.05C23.93 0.13 23.78 0.38 23.56 0.51C23.81 0.76 23.98 1.14 24.34 1.14C24.54 1.14 24.79 1.09 25.07 1.09C25.50 1.09 25.65 1.11 25.65 1.51C25.65 1.69 25.62 1.89 25.55 2.02C24.74 3.78 23.91 5.52 23.08 7.28C23.03 7.38 23.03 7.48 23.03 7.58C23.03 7.76 23.05 7.94 23.08 8.11C23.91 7.94 24.16 7.56 24.39 7.05C25.22 5.27 26.10 3.48 26.88 1.67C27.43 0.38 28.32 0.20 29.40 0.13C29.52 0.13 29.90 0.53 29.90 0.73L29.90 0.76C29.68 2.65 29.17 4.56 29.17 6.42C29.17 7.31 29.40 8.84 30.08 8.84C31.06 8.84 32.04 6.78 32.04 5.80C32.04 5.39 31.29 4.91 31.29 4.59C31.64 2.85 31.36 0.88 32.35-0.75C32.52-1.03 32.47-2.69 32.60-3.47C32.90-5.23 33.23-7.02 33.55-8.78ZM29.30-1.18C28.77-1.18 28.52-1.28 28.52-1.53C28.52-2.14 29.73-4.10 30.23-5.08C30.38-5.36 30.63-5.46 30.81-5.64C30.88-5.44 30.96-5.23 30.96-5.01C30.96-4.08 30.61-3.07 30.43-2.14C30.31-1.51 30.03-1.15 29.47-1.15C29.42-1.15 29.35-1.18 29.30-1.18Z"/><path fill="#DB9E36" opacity="1" d="M35.22 2.52C35.95 1.84 36.78 1.14 37.63 0.76C37.15 1.82 36.68 2.75 36.17 3.71C35.82 4.36 35.47 5.17 35.47 6.00C35.47 6.80 35.82 7.56 36.88 7.56C38.16 7.56 39.47 7.05 40.76 6.70C41.08 6.60 41.23 6.10 41.23 5.57C41.23 5.01 41.06 4.46 40.81 4.46L40.76 4.46C39.47 4.84 38.01 5.32 36.78 5.32C37.58 3.58 38.84 2.27 38.84-0.12C38.84-0.90 38.64-1.58 38.01-1.58C36.98-1.58 35.77-0.40 34.99 0.33C34.69 0.61 34.59 1.01 34.59 1.44C34.59 1.14 34.56 2.60 35.09 2.60C35.12 2.60 35.17 2.57 35.22 2.52Z"/><path fill="#DB9E36" opacity="1" d="M41.99 5.19C42.09 6.73 42.29 8.09 44.10 8.09C45.09 8.09 46.60 7.28 46.60 6.22C46.60 6.00 46.47 5.85 46.19 5.85C45.77 5.85 45.31 6.15 44.86 6.20C43.93 6.20 43.98 5.44 43.98 4.96C43.98 3.73 45.26 3.40 45.87 2.32C46.35 1.62 47.23 0.28 47.23-0.53C47.23-1.48 46.57-2.01 45.72-2.01C43.20-2.01 42.06 2.62 41.99 5.19ZM46.25 0.03C45.92 0.63 45.36 1.82 44.94 1.82C44.89 1.82 44.68 1.54 44.68 1.46C44.89 0.91 45.34-0.60 45.77-0.60C45.97-0.60 46.09-0.27 46.25 0.03Z"/><path fill="#DB9E36" opacity="1" d="M55.54-0.10C55.44-0.07 55.34-0.05 55.26-0.05C55.01-0.05 54.88-0.22 54.88-0.55C54.88-1.71 55.29-2.92 55.29-4.13C55.29-4.55 55.01-4.86 54.66-4.86C53.62-4.86 53.50-1.73 53.30-0.10C53.20 0.66 52.64 0.86 51.63 0.86C51.03 0.86 50.75 0.78 50.75 0.38C50.75 0.28 50.78 0.15 50.80 0.03C50.98-0.88 51.08-1.81 51.18-2.77C51.18-3.02 50.88-3.40 50.63-3.40C50.50-3.40 50.37-3.37 50.27-3.32C49.95-2.72 49.54-2.11 49.17-1.38C49.44-1.36 49.54-1.18 49.54-0.85C49.54-0.35 49.54 0.76 48.66 0.76C48.64 0.76 48.61 0.78 48.61 0.83C48.61 1.04 48.86 1.72 48.86 2.57C48.86 2.77 48.84 3.00 48.81 3.20C48.59 4.61 48.23 6.12 48.23 7.51C48.23 8.39 48.36 9.40 49.12 9.40C49.52 9.40 49.67 9.09 49.67 8.62C49.67 8.19 49.54 7.63 49.54 7.23C49.54 6.05 49.82 4.74 50.05 3.55C50.37 1.92 50.43 1.92 52.11 1.89L52.24 1.89C52.64 1.89 52.84 2.02 52.84 2.35C52.84 2.85 52.64 3.48 52.57 4.08C52.39 5.44 52.04 6.88 52.04 8.24C52.04 8.79 52.41 9.72 52.97 9.72C53.37 9.72 53.95 9.24 53.95 8.74C53.95 8.44 53.57 7.91 53.57 7.41C53.57 7.33 53.60 7.28 53.60 7.21C53.85 5.52 54.13 3.83 54.43 2.12C54.58 1.24 55.81 1.11 55.81 0.28C55.81 0.05 55.74-0.10 55.59-0.10Z"/><path fill="#DB9E36" opacity="1" d="M64.88 6.30C64.40 5.69 63.57 5.37 62.76 5.12L63.85 0.18C63.85 0.10 63.87 0.03 63.87-0.05C63.87-0.47 63.65-0.88 62.91-0.88C62.51-0.88 62.16-0.65 61.91-0.17C61.15 1.26 60.27 2.60 59.41 3.93C59.29 4.16 58.94 4.31 58.71 4.31C58.48 4.31 58.26 3.98 58.26 3.55C58.26 2.75 58.51-0.37 58.56-1.21C58.56-1.53 58.43-1.86 58.38-2.24C58.05-1.99 57.58-1.81 57.45-1.46C57.15-0.65 57.05 2.55 56.82 3.43C57.17 4.96 57.45 6.35 58.51 6.35C59.14 6.35 59.84 5.62 60.80 5.04C61.00 5.82 61.56 7.13 61.86 7.13L61.88 7.10C61.88 7.18 62.81 7.41 63.02 7.48L63.75 7.81C63.85 7.83 63.97 7.94 64.07 8.01C64.05 8.14 64.05 8.26 64.05 8.39C64.05 8.99 64.22 9.67 64.45 9.67C64.48 9.67 64.50 9.65 64.55 9.62C65.08 9.14 65.38 8.46 65.38 7.76C65.38 7.26 65.21 6.75 64.88 6.30Z"/><path fill="#DB9E36" opacity="1" d="M65.38 6.50C65.43 6.50 65.46 6.55 65.46 6.55L65.46 6.73C65.46 7.10 65.84 7.53 66.06 7.86C66.42 7.68 66.97 7.41 67.09 6.93C67.65 4.74 68.20 2.50 68.71 0.28L68.71 0.15C68.71-0.40 68.28-0.88 67.70-0.88C66.01-0.88 66.29 1.72 66.06 2.97C65.84 4.18 65.63 5.32 65.38 6.50ZM67.72-4.35C67.88-4.23 68.35-3.70 68.51-3.70C69.13-3.70 69.61-5.13 69.61-5.03C69.61-5.41 69.26-5.61 68.78-5.61C68.15-5.61 67.75-5.26 67.72-4.35Z"/><path fill="#DB9E36" opacity="1" d="M75.23-3.24C75.18-3.27 75.13-3.30 75.08-3.30C74.55-3.30 73.84-3.30 73.49-3.04C71.98-1.96 71.43-0.32 71.43 1.46C71.43 1.69 71.48 1.87 71.53 2.04C70.62 3.65 69.39 5.52 68.35 6.83C68.30 6.93 68.10 6.95 67.98 6.95C67.75 6.95 67.47 6.35 67.35 6.07L67.20 6.07C67.17 6.42 67.09 6.78 67.09 7.18C67.09 7.63 67.80 8.04 68.25 8.04C69.59 8.04 70.32 6.20 70.95 5.29C72.01 3.78 72.61 2.97 73.09 2.32C73.14 2.17 73.24 2.12 73.37 2.12C73.54 2.12 73.67 2.35 73.67 2.60C73.67 3.28 73.42 3.23 73.29 3.78C72.84 5.92 72.41 6.02 72.01 8.16C72.11 8.16 72.16 8.21 72.21 8.21C72.21 8.36 72.18 8.49 72.18 8.64C72.18 8.84 72.48 9.77 72.84 9.77C73.77 9.77 74.80 7.23 74.80 7.00C74.80 6.83 74.75 6.55 74.52 6.35C75.13 4.01 76.11 1.41 76.74-1.08C76.87-1.53 76.92-1.91 76.92-2.19C76.92-2.92 76.46-3.09 75.23-3.24ZM74.67-1.56C74.20-0.78 73.19 0.83 72.74 0.83C72.51 0.83 72.58 0.61 72.38 0.18C72.86-0.58 73.29-1.41 73.84-2.19C73.97-2.36 74.42-2.29 74.67-2.34C74.67-2.16 74.72-1.94 74.72-1.78C74.72-1.68 74.70-1.61 74.67-1.56ZM74.42 6.88C74.42 6.90 74.40 6.93 74.40 6.93C74.40 6.93 74.42 6.45 74.52 6.35C74.47 6.55 74.42 6.70 74.42 6.88Z"/><path fill="#DB9E36" opacity="1" d=""/></g></svg>